<?xml version="1.0" encoding="iso-8859-1"?>
<!-- Generator: Adobe Illustrator 19.0.0, SVG Export Plug-In . SVG Version: 6.00 Build 0)  -->
<svg version="1.1" id="Layer_1" xmlns="http://www.w3.org/2000/svg" xmlns:xlink="http://www.w3.org/1999/xlink" x="0px" y="0px"
	 viewBox="0 0 511.995 511.995" style="enable-background:new 0 0 511.995 511.995;" xml:space="preserve">
<g>
	<g>
		<path d="M266.661,138.667c-29.405,0-53.327,23.93-53.327,53.336c0,29.405,23.922,53.335,53.327,53.335
			c29.413,0,53.335-23.93,53.335-53.335C319.996,162.597,296.074,138.667,266.661,138.667z M266.661,224.001
			c-17.641,0-31.999-14.352-31.999-31.999c0-17.648,14.358-32,31.999-32c17.648,0,31.991,14.352,31.991,32
			C298.652,209.65,284.309,224.001,266.661,224.001z"/>
	</g>
</g>
<g>
	<g>
		<path d="M490.291,211.182c-6.078-27.132-12.796-50.374-19.452-67.491c5.719-7.258,9.156-16.414,9.156-26.352
			c0-23.53-19.141-42.671-42.656-42.671h-24.108C389.965,42.395,352.059,21.34,309.34,21.34c0,0,0,0-0.016,0h-63.991
			c0,0,0,0-0.008,0H53.335c-2.828,0-5.546,1.125-7.546,3.125L3.125,67.129c-0.008,0-0.008,0.008-0.008,0.008
			C1.187,69.066,0,71.73,0,74.668v106.671c0,5.891,4.773,10.664,10.664,10.664h127.999c0,70.577,57.421,127.999,127.998,127.999
			c46.21,0,86.772-24.625,109.272-61.414c10.562-6.453,20.094-14.391,28.344-23.516c-0.188,7.75-0.312,15.68-0.312,23.742
			c0,55.812,4.922,110.842,13.469,150.982c5,23.469,11.234,42.016,18.499,55.141c9.469,17.062,21.156,25.719,34.688,25.719
			c19.655,0,29.28-18,33.905-33.094c4.953-16.219,7.469-38.875,7.469-67.375C511.994,339.436,503.682,270.845,490.291,211.182z
			 M249.747,42.668h33.844l-21.344,21.336h-33.835L249.747,42.668z M57.749,42.668h161.835l-21.336,21.336H36.414L57.749,42.668z
			 M266.661,298.658c-58.812,0-106.663-47.844-106.663-106.655c0-3.172,0.148-6.438,0.445-9.711c0.266-2.984-0.727-5.938-2.75-8.148
			c-2.023-2.21-4.875-3.477-7.875-3.477H21.336V85.34h245.325c58.819,0,106.679,47.851,106.679,106.663
			C373.34,250.814,325.48,298.658,266.661,298.658z M406.48,193.345c-3.734,8.235-8.515,15.915-14.125,22.868
			c1.516-7.844,2.297-15.938,2.297-24.21c0-62.531-45.062-114.726-104.422-125.819l23.422-23.414
			c28.047,1.125,53.344,13.125,71.766,31.898H373.34c-4.609,0-8.688,2.953-10.141,7.32c-1.453,4.375,0.078,9.172,3.766,11.914
			c0.219,0.156,21.5,16.843,34.125,58.522c1.281,4.203,4.969,7.164,9.281,7.539C408.793,169.901,407.496,181.143,406.48,193.345z
			 M416.59,131.98c-6.031-15.484-13-27.32-19.25-35.976h39.999c11.75,0,21.312,9.569,21.312,21.335c0,0.609-0.031,1.211-0.062,1.805
			c-5.938-8.469-12.078-12.422-18.953-12.422c-8.546,0-15.405,6.062-20.421,18.016C418.309,126.91,417.434,129.332,416.59,131.98z
			 M444.682,137.362c-2.297,0.844-4.781,1.305-7.344,1.305h-0.468c1.281-4.094,2.453-6.781,3.359-8.5
			C441.338,131.62,442.838,133.901,444.682,137.362z M484.869,448.686c-2.094,7.719-6.733,20.656-14.249,20.656
			c-7.562,0-15.969-11.156-23.062-30.562c-13.937-38.219-22.468-108.232-22.249-182.748c0.062-20.289,0.812-39.875,2.156-57.453
			c5.047-12.046,8.296-25.015,9.421-38.577h0.453c5.531,0,10.844-1.078,15.703-3.016c1.359,3.773,2.797,8.023,4.297,12.805
			c7.844,24.944,15.406,57.944,21.281,92.929C492.057,342.297,494.432,413.561,484.869,448.686z"/>
	</g>
</g>
<g>
</g>
<g>
</g>
<g>
</g>
<g>
</g>
<g>
</g>
<g>
</g>
<g>
</g>
<g>
</g>
<g>
</g>
<g>
</g>
<g>
</g>
<g>
</g>
<g>
</g>
<g>
</g>
<g>
</g>
</svg>
