<?xml version="1.0" encoding="iso-8859-1"?>
<!-- Generator: Adobe Illustrator 19.0.0, SVG Export Plug-In . SVG Version: 6.00 Build 0)  -->
<svg version="1.1" id="Capa_1" xmlns="http://www.w3.org/2000/svg" xmlns:xlink="http://www.w3.org/1999/xlink" x="0px" y="0px"
	 viewBox="0 0 60 60" style="enable-background:new 0 0 60 60;" xml:space="preserve">
<g>
	<g>
		<path d="M2,10H1v12.719v14.562V50h1h56h1V37.281V22.719V10h-1H2z M31,25.101c2.279,0.465,4,2.484,4,4.899s-1.721,4.434-4,4.899
			V25.101z M3,25.281l6,1.5v6.438l-6,1.5V25.281z M3,36.781l8-2v-9.562l-8-2V12.041C10.479,12.658,16,20.172,16,30
			S10.479,47.342,3,47.959V36.781z M29,34.899c-2.279-0.465-4-2.484-4-4.899s1.721-4.434,4-4.899V34.899z M29,23.08
			c-3.387,0.488-6,3.401-6,6.92s2.613,6.432,6,6.92V48H9.167C14.488,44.824,18,38.136,18,30s-3.512-14.824-8.833-18H29V23.08z
			 M31,48V36.92c3.387-0.488,6-3.401,6-6.92s-2.613-6.432-6-6.92V12h19.833C45.512,15.176,42,21.864,42,30s3.512,14.824,8.833,18H31
			z M57,34.719l-6-1.5v-6.438l6-1.5V34.719z M57,23.219l-8,2v9.562l8,2v11.178C49.521,47.342,44,39.828,44,30
			s5.521-17.342,13-17.959V23.219z"/>
		<path d="M26,58h-1c-0.552,0-1,0.448-1,1s0.448,1,1,1h1c0.552,0,1-0.448,1-1S26.552,58,26,58z"/>
		<path d="M30,58h-1c-0.552,0-1,0.448-1,1s0.448,1,1,1h1c0.552,0,1-0.448,1-1S30.552,58,30,58z"/>
		<path d="M22,58h-1c-0.552,0-1,0.448-1,1s0.448,1,1,1h1c0.552,0,1-0.448,1-1S22.552,58,22,58z"/>
		<path d="M34,58h-1c-0.552,0-1,0.448-1,1s0.448,1,1,1h1c0.552,0,1-0.448,1-1S34.552,58,34,58z"/>
		<path d="M38,58h-1c-0.552,0-1,0.448-1,1s0.448,1,1,1h1c0.552,0,1-0.448,1-1S38.552,58,38,58z"/>
		<path d="M18,58h-1c-0.552,0-1,0.448-1,1s0.448,1,1,1h1c0.552,0,1-0.448,1-1S18.552,58,18,58z"/>
		<path d="M6,58H5c-0.552,0-1,0.448-1,1s0.448,1,1,1h1c0.552,0,1-0.448,1-1S6.552,58,6,58z"/>
		<path d="M2,58H1c-0.552,0-1,0.448-1,1s0.448,1,1,1h1c0.552,0,1-0.448,1-1S2.552,58,2,58z"/>
		<path d="M42,58h-1c-0.552,0-1,0.448-1,1s0.448,1,1,1h1c0.552,0,1-0.448,1-1S42.552,58,42,58z"/>
		<path d="M10,58H9c-0.552,0-1,0.448-1,1s0.448,1,1,1h1c0.552,0,1-0.448,1-1S10.552,58,10,58z"/>
		<path d="M14,58h-1c-0.552,0-1,0.448-1,1s0.448,1,1,1h1c0.552,0,1-0.448,1-1S14.552,58,14,58z"/>
		<path d="M50,58h-1c-0.552,0-1,0.448-1,1s0.448,1,1,1h1c0.552,0,1-0.448,1-1S50.552,58,50,58z"/>
		<path d="M54,58h-1c-0.552,0-1,0.448-1,1s0.448,1,1,1h1c0.552,0,1-0.448,1-1S54.552,58,54,58z"/>
		<path d="M46,58h-1c-0.552,0-1,0.448-1,1s0.448,1,1,1h1c0.552,0,1-0.448,1-1S46.552,58,46,58z"/>
		<path d="M58,58h-1c-0.552,0-1,0.448-1,1s0.448,1,1,1h1c0.552,0,1-0.448,1-1S58.552,58,58,58z"/>
		<path d="M18,55h-1c-0.552,0-1,0.448-1,1s0.448,1,1,1h1c0.552,0,1-0.448,1-1S18.552,55,18,55z"/>
		<path d="M26,55h-1c-0.552,0-1,0.448-1,1s0.448,1,1,1h1c0.552,0,1-0.448,1-1S26.552,55,26,55z"/>
		<path d="M14,55h-1c-0.552,0-1,0.448-1,1s0.448,1,1,1h1c0.552,0,1-0.448,1-1S14.552,55,14,55z"/>
		<path d="M22,55h-1c-0.552,0-1,0.448-1,1s0.448,1,1,1h1c0.552,0,1-0.448,1-1S22.552,55,22,55z"/>
		<path d="M50,55h-1c-0.552,0-1,0.448-1,1s0.448,1,1,1h1c0.552,0,1-0.448,1-1S50.552,55,50,55z"/>
		<path d="M54,55h-1c-0.552,0-1,0.448-1,1s0.448,1,1,1h1c0.552,0,1-0.448,1-1S54.552,55,54,55z"/>
		<path d="M10,55H9c-0.552,0-1,0.448-1,1s0.448,1,1,1h1c0.552,0,1-0.448,1-1S10.552,55,10,55z"/>
		<path d="M6,55H5c-0.552,0-1,0.448-1,1s0.448,1,1,1h1c0.552,0,1-0.448,1-1S6.552,55,6,55z"/>
		<path d="M38,55h-1c-0.552,0-1,0.448-1,1s0.448,1,1,1h1c0.552,0,1-0.448,1-1S38.552,55,38,55z"/>
		<path d="M34,55h-1c-0.552,0-1,0.448-1,1s0.448,1,1,1h1c0.552,0,1-0.448,1-1S34.552,55,34,55z"/>
		<path d="M42,55h-1c-0.552,0-1,0.448-1,1s0.448,1,1,1h1c0.552,0,1-0.448,1-1S42.552,55,42,55z"/>
		<path d="M30,55h-1c-0.552,0-1,0.448-1,1s0.448,1,1,1h1c0.552,0,1-0.448,1-1S30.552,55,30,55z"/>
		<path d="M46,55h-1c-0.552,0-1,0.448-1,1s0.448,1,1,1h1c0.552,0,1-0.448,1-1S46.552,55,46,55z"/>
		<path d="M34,52h-1c-0.552,0-1,0.448-1,1s0.448,1,1,1h1c0.552,0,1-0.448,1-1S34.552,52,34,52z"/>
		<path d="M42,52h-1c-0.552,0-1,0.448-1,1s0.448,1,1,1h1c0.552,0,1-0.448,1-1S42.552,52,42,52z"/>
		<path d="M10,52H9c-0.552,0-1,0.448-1,1s0.448,1,1,1h1c0.552,0,1-0.448,1-1S10.552,52,10,52z"/>
		<path d="M26,52h-1c-0.552,0-1,0.448-1,1s0.448,1,1,1h1c0.552,0,1-0.448,1-1S26.552,52,26,52z"/>
		<path d="M38,52h-1c-0.552,0-1,0.448-1,1s0.448,1,1,1h1c0.552,0,1-0.448,1-1S38.552,52,38,52z"/>
		<path d="M22,52h-1c-0.552,0-1,0.448-1,1s0.448,1,1,1h1c0.552,0,1-0.448,1-1S22.552,52,22,52z"/>
		<path d="M14,52h-1c-0.552,0-1,0.448-1,1s0.448,1,1,1h1c0.552,0,1-0.448,1-1S14.552,52,14,52z"/>
		<path d="M46,52h-1c-0.552,0-1,0.448-1,1s0.448,1,1,1h1c0.552,0,1-0.448,1-1S46.552,52,46,52z"/>
		<path d="M18,52h-1c-0.552,0-1,0.448-1,1s0.448,1,1,1h1c0.552,0,1-0.448,1-1S18.552,52,18,52z"/>
		<path d="M50,52h-1c-0.552,0-1,0.448-1,1s0.448,1,1,1h1c0.552,0,1-0.448,1-1S50.552,52,50,52z"/>
		<path d="M30,52h-1c-0.552,0-1,0.448-1,1s0.448,1,1,1h1c0.552,0,1-0.448,1-1S30.552,52,30,52z"/>
		<path d="M34,2h1c0.552,0,1-0.448,1-1s-0.448-1-1-1h-1c-0.552,0-1,0.448-1,1S33.448,2,34,2z"/>
		<path d="M30,2h1c0.552,0,1-0.448,1-1s-0.448-1-1-1h-1c-0.552,0-1,0.448-1,1S29.448,2,30,2z"/>
		<path d="M38,2h1c0.552,0,1-0.448,1-1s-0.448-1-1-1h-1c-0.552,0-1,0.448-1,1S37.448,2,38,2z"/>
		<path d="M26,2h1c0.552,0,1-0.448,1-1s-0.448-1-1-1h-1c-0.552,0-1,0.448-1,1S25.448,2,26,2z"/>
		<path d="M22,2h1c0.552,0,1-0.448,1-1s-0.448-1-1-1h-1c-0.552,0-1,0.448-1,1S21.448,2,22,2z"/>
		<path d="M54,2h1c0.552,0,1-0.448,1-1s-0.448-1-1-1h-1c-0.552,0-1,0.448-1,1S53.448,2,54,2z"/>
		<path d="M50,2h1c0.552,0,1-0.448,1-1s-0.448-1-1-1h-1c-0.552,0-1,0.448-1,1S49.448,2,50,2z"/>
		<path d="M42,2h1c0.552,0,1-0.448,1-1s-0.448-1-1-1h-1c-0.552,0-1,0.448-1,1S41.448,2,42,2z"/>
		<path d="M18,2h1c0.552,0,1-0.448,1-1s-0.448-1-1-1h-1c-0.552,0-1,0.448-1,1S17.448,2,18,2z"/>
		<path d="M46,2h1c0.552,0,1-0.448,1-1s-0.448-1-1-1h-1c-0.552,0-1,0.448-1,1S45.448,2,46,2z"/>
		<path d="M59,0h-1c-0.552,0-1,0.448-1,1s0.448,1,1,1h1c0.552,0,1-0.448,1-1S59.552,0,59,0z"/>
		<path d="M14,2h1c0.552,0,1-0.448,1-1s-0.448-1-1-1h-1c-0.552,0-1,0.448-1,1S13.448,2,14,2z"/>
		<path d="M6,2h1c0.552,0,1-0.448,1-1S7.552,0,7,0H6C5.448,0,5,0.448,5,1S5.448,2,6,2z"/>
		<path d="M2,2h1c0.552,0,1-0.448,1-1S3.552,0,3,0H2C1.448,0,1,0.448,1,1S1.448,2,2,2z"/>
		<path d="M10,2h1c0.552,0,1-0.448,1-1s-0.448-1-1-1h-1C9.448,0,9,0.448,9,1S9.448,2,10,2z"/>
		<path d="M42,5h1c0.552,0,1-0.448,1-1s-0.448-1-1-1h-1c-0.552,0-1,0.448-1,1S41.448,5,42,5z"/>
		<path d="M10,5h1c0.552,0,1-0.448,1-1s-0.448-1-1-1h-1C9.448,3,9,3.448,9,4S9.448,5,10,5z"/>
		<path d="M18,5h1c0.552,0,1-0.448,1-1s-0.448-1-1-1h-1c-0.552,0-1,0.448-1,1S17.448,5,18,5z"/>
		<path d="M6,5h1c0.552,0,1-0.448,1-1S7.552,3,7,3H6C5.448,3,5,3.448,5,4S5.448,5,6,5z"/>
		<path d="M54,5h1c0.552,0,1-0.448,1-1s-0.448-1-1-1h-1c-0.552,0-1,0.448-1,1S53.448,5,54,5z"/>
		<path d="M46,5h1c0.552,0,1-0.448,1-1s-0.448-1-1-1h-1c-0.552,0-1,0.448-1,1S45.448,5,46,5z"/>
		<path d="M34,5h1c0.552,0,1-0.448,1-1s-0.448-1-1-1h-1c-0.552,0-1,0.448-1,1S33.448,5,34,5z"/>
		<path d="M50,5h1c0.552,0,1-0.448,1-1s-0.448-1-1-1h-1c-0.552,0-1,0.448-1,1S49.448,5,50,5z"/>
		<path d="M38,5h1c0.552,0,1-0.448,1-1s-0.448-1-1-1h-1c-0.552,0-1,0.448-1,1S37.448,5,38,5z"/>
		<path d="M22,5h1c0.552,0,1-0.448,1-1s-0.448-1-1-1h-1c-0.552,0-1,0.448-1,1S21.448,5,22,5z"/>
		<path d="M14,5h1c0.552,0,1-0.448,1-1s-0.448-1-1-1h-1c-0.552,0-1,0.448-1,1S13.448,5,14,5z"/>
		<path d="M30,5h1c0.552,0,1-0.448,1-1s-0.448-1-1-1h-1c-0.552,0-1,0.448-1,1S29.448,5,30,5z"/>
		<path d="M26,5h1c0.552,0,1-0.448,1-1s-0.448-1-1-1h-1c-0.552,0-1,0.448-1,1S25.448,5,26,5z"/>
		<path d="M26,8h1c0.552,0,1-0.448,1-1s-0.448-1-1-1h-1c-0.552,0-1,0.448-1,1S25.448,8,26,8z"/>
		<path d="M50,8h1c0.552,0,1-0.448,1-1s-0.448-1-1-1h-1c-0.552,0-1,0.448-1,1S49.448,8,50,8z"/>
		<path d="M22,8h1c0.552,0,1-0.448,1-1s-0.448-1-1-1h-1c-0.552,0-1,0.448-1,1S21.448,8,22,8z"/>
		<path d="M18,8h1c0.552,0,1-0.448,1-1s-0.448-1-1-1h-1c-0.552,0-1,0.448-1,1S17.448,8,18,8z"/>
		<path d="M42,8h1c0.552,0,1-0.448,1-1s-0.448-1-1-1h-1c-0.552,0-1,0.448-1,1S41.448,8,42,8z"/>
		<path d="M14,8h1c0.552,0,1-0.448,1-1s-0.448-1-1-1h-1c-0.552,0-1,0.448-1,1S13.448,8,14,8z"/>
		<path d="M38,8h1c0.552,0,1-0.448,1-1s-0.448-1-1-1h-1c-0.552,0-1,0.448-1,1S37.448,8,38,8z"/>
		<path d="M34,8h1c0.552,0,1-0.448,1-1s-0.448-1-1-1h-1c-0.552,0-1,0.448-1,1S33.448,8,34,8z"/>
		<path d="M10,8h1c0.552,0,1-0.448,1-1s-0.448-1-1-1h-1C9.448,6,9,6.448,9,7S9.448,8,10,8z"/>
		<path d="M46,8h1c0.552,0,1-0.448,1-1s-0.448-1-1-1h-1c-0.552,0-1,0.448-1,1S45.448,8,46,8z"/>
		<path d="M30,8h1c0.552,0,1-0.448,1-1s-0.448-1-1-1h-1c-0.552,0-1,0.448-1,1S29.448,8,30,8z"/>
	</g>
</g>
<g>
</g>
<g>
</g>
<g>
</g>
<g>
</g>
<g>
</g>
<g>
</g>
<g>
</g>
<g>
</g>
<g>
</g>
<g>
</g>
<g>
</g>
<g>
</g>
<g>
</g>
<g>
</g>
<g>
</g>
</svg>
