<?xml version="1.0" encoding="iso-8859-1"?>
<!-- Generator: Adobe Illustrator 19.0.0, SVG Export Plug-In . SVG Version: 6.00 Build 0)  -->
<svg xmlns="http://www.w3.org/2000/svg" xmlns:xlink="http://www.w3.org/1999/xlink" version="1.1" id="Layer_1" x="0px" y="0px" viewBox="0 0 512.016 512.016" style="enable-background:new 0 0 512.016 512.016;" xml:space="preserve" width="512" height="512">
<g>
	<path d="M436.008,240c5.52,0,10-4.48,10-10s-4.48-10-10-10s-10,4.48-10,10S430.488,240,436.008,240z"/>
	<path d="M26.008,50v220c0,16.542,13.458,30,30,30h41.72c4.128,11.639,15.243,20,28.28,20h2.77   c9.723,30.088,15.597,63.656,18.182,95.562c2.363,29.368,2.056,58.875-0.891,85.331c-1.016,9.101,9.715,14.569,16.514,8.642   l43.631-38.078l43.184,38.047c1.889,1.665,4.25,2.497,6.61,2.497c2.36,0,4.722-0.832,6.61-2.497l43.184-38.047l43.631,38.078   c6.905,6.021,17.507,0.281,16.514-8.638c-2.938-26.477-3.243-55.989-0.882-85.337c2.558-31.462,8.399-65.278,18.177-95.56h2.766   c13.331,0,24.279-8.612,28.297-20h41.703c16.542,0,30-13.458,30-30V50c0-16.542-13.458-30-30-30h-133.68   c-19.679-13.084-42.531-20-66.32-20c-23.791,0-46.645,6.917-66.32,20H56.008C39.466,20,26.008,33.458,26.008,50z M162.219,374.944   c-1.928-12.05-4.262-23.708-7.001-34.906l23.902,20.86L162.219,374.944z M166.518,409.828c-0.342-3.839-0.727-7.668-1.153-11.493   l29.018-24.117l46.416,40.509l-34.523,30.129L166.518,409.828z M209.963,361.27l46.045-38.268l46.047,38.266l-46.047,40.186   L209.963,361.27z M317.635,374.216l29.006,24.105c-0.427,3.795-0.811,7.645-1.156,11.519l-39.745,35.017l-34.523-30.129   L317.635,374.216z M349.812,374.954l-16.915-14.057l23.912-20.869C354.071,351.234,351.737,362.899,349.812,374.954z    M317.317,347.949L283.687,320h65.655L317.317,347.949z M194.7,347.95L162.674,320h65.656L194.7,347.95z M167.925,478.327   c0.666-13.106,0.778-26.641,0.328-40.316l22.825,20.109L167.925,478.327z M256.008,488.672l-34.595-30.48L256.008,428   l34.595,30.192L256.008,488.672z M343.772,438.003c-0.45,13.675-0.339,27.216,0.326,40.33l-23.16-20.212L343.772,438.003z    M386.008,300c-55.414,0-167.15,0-260,0c-5.514,0-10-4.486-10-10c0-5.522,4.479-10,10-10h260c5.514,0,10,4.486,10,10   C396.008,295.522,391.529,300,386.008,300z M466.008,50v220c0,5.514-4.486,10-10,10h-41.72c-4.128-11.639-15.243-20-28.28-20h-260   c-13.331,0-24.279,8.612-28.297,20H56.008c-5.514,0-10-4.486-10-10V50c0-5.514,4.486-10.01,10-10.01h110.578   c-19.67,21.98-30.578,50.621-30.578,80.01c0,27.68,9.647,54.674,27.162,76.037c0.032,0.041,0.063,0.082,0.096,0.122   c0.007,0.008,0.013,0.016,0.019,0.024C186.193,224.029,219.989,240,256.008,240s69.814-15.971,92.723-43.817   c0.005-0.007,0.01-0.014,0.016-0.02c0.036-0.044,0.069-0.088,0.104-0.132c17.512-21.361,27.157-48.353,27.157-76.03   c0-29.734-11.142-58.281-30.577-80h110.577C461.521,40,466.008,44.486,466.008,50z M355.484,110h-28.952   c1.529-15.139,6.489-29.763,14.476-42.665C348.994,80.237,353.955,94.861,355.484,110z M183.936,189.321   c12.351-17.46,19.852-38,21.645-59.321h40.427v89.495C222.375,217.142,200.45,206.503,183.936,189.321z M171.008,67.335   c7.987,12.902,12.947,27.525,14.476,42.665h-28.952C158.061,94.861,163.021,80.238,171.008,67.335z M185.483,130   c-1.529,15.139-6.49,29.765-14.477,42.672c-7.986-12.903-12.946-27.529-14.475-42.672H185.483z M266.008,130h40.427   c1.792,21.321,9.294,41.86,21.645,59.32c-16.514,17.182-38.439,27.822-62.072,30.175V130z M341.009,172.672   c-7.988-12.908-12.948-27.544-14.477-42.682h28.952C353.955,145.133,348.996,159.769,341.009,172.672z M313.513,38.179   c5.24,3.687,10.111,7.885,14.563,12.516C315.728,68.146,308.227,88.68,306.434,110h-40.427V20.51   C283.105,22.202,299.363,28.212,313.513,38.179z M246.008,110h-40.427c-1.792-21.32-9.293-41.853-21.641-59.306   c4.452-4.631,9.324-8.83,14.567-12.519c14.146-9.964,30.404-15.974,47.501-17.666V110z"/>
	<path d="M436.008,200c5.522,0,10-4.477,10-10V90c0-5.523-4.478-10-10-10s-10,4.477-10,10v100   C426.008,195.523,430.485,200,436.008,200z"/>
</g>















</svg>
