<?xml version="1.0"?>
<svg xmlns="http://www.w3.org/2000/svg" viewBox="0 0 64 64" width="512" height="512"><g id="Book"><path d="M56,2H14A7.008,7.008,0,0,0,7,9V51a7.008,7.008,0,0,0,7,7H39v3a1,1,0,0,0,1.555.832L43,60.2l2.445,1.63A1,1,0,0,0,47,61V58h9a1,1,0,0,0,1-1V3A1,1,0,0,0,56,2ZM9,9a5.006,5.006,0,0,1,5-5H55V44H14a6.913,6.913,0,0,0-4.944,2.049c-.02.02-.037.042-.056.061ZM45,59.131l-1.445-.963a1,1,0,0,0-1.11,0L41,59.131V52h4ZM55,56H47V52h5a1,1,0,0,0,0-2H12a1,1,0,0,0,0,2H39v4H14a5.006,5.006,0,0,1-5-5,5.009,5.009,0,0,1,5-5H55Z"/><path d="M14,42a1,1,0,0,0,1-1V7a1,1,0,0,0-2,0V41A1,1,0,0,0,14,42Z"/><path d="M48,21H22a1,1,0,0,1-1-1V11a1,1,0,0,1,1-1H48a1,1,0,0,1,1,1v9A1,1,0,0,1,48,21ZM23,19H47V12H23Z"/></g></svg>
