<?xml version="1.0"?>
<svg xmlns="http://www.w3.org/2000/svg" viewBox="0 0 64 64" width="512" height="512"><g id="outline"><path d="M61,6H55V2H53V6H47V2H45V6H39V2H37V6H31V2H29V6H23V2H21V6H15a1,1,0,0,0-1,1V45h2V18H60V35H51a1,1,0,0,0-1,1v9H46v2h5a1.005,1.005,0,0,0,.707-.293L60,38.414V49H47v2H61a1,1,0,0,0,1-1V7A1,1,0,0,0,61,6ZM16,16V8h5v4h2V8h6v4h2V8h6v4h2V8h6v4h2V8h6v4h2V8h5v8ZM52,43.586V37h6.586Z"/><path d="M20,29h6a1,1,0,0,0,1-1V22a1,1,0,0,0-1-1H20a1,1,0,0,0-1,1v6A1,1,0,0,0,20,29Zm1-6h4v4H21Z"/><path d="M30,29h6a1,1,0,0,0,1-1V22a1,1,0,0,0-1-1H30a1,1,0,0,0-1,1v6A1,1,0,0,0,30,29Zm2.414-2L35,24.414V27Zm1.172-4L31,25.586V23Z"/><path d="M40,29h6a1,1,0,0,0,1-1V22a1,1,0,0,0-1-1H40a1,1,0,0,0-1,1v6A1,1,0,0,0,40,29Zm1-6h4v4H41Z"/><path d="M56,29a1,1,0,0,0,1-1V22a1,1,0,0,0-1-1H50a1,1,0,0,0-1,1v6a1,1,0,0,0,1,1Zm-5-6h4v4H51Z"/><path d="M19,38a1,1,0,0,0,1,1h6a1,1,0,0,0,1-1V32a1,1,0,0,0-1-1H20a1,1,0,0,0-1,1Zm2-5h4v4H21Z"/><path d="M29,38a1,1,0,0,0,1,1h6a1,1,0,0,0,1-1V32a1,1,0,0,0-1-1H30a1,1,0,0,0-1,1Zm2-5h4v4H31Z"/><path d="M39,38a1,1,0,0,0,1,1h6a1,1,0,0,0,1-1V32a1,1,0,0,0-1-1H40a1,1,0,0,0-1,1Zm3.414-1L45,34.414V37Zm1.172-4L41,35.586V33Z"/><path d="M7,62H41a5.006,5.006,0,0,0,5-5,34.913,34.913,0,0,0-2.838-13.828l-.243-.566a1,1,0,0,0-1.366-.5l-2.615,1.308a8.978,8.978,0,0,1-9.256-.726l-2.1-1.5a1,1,0,0,0-1.067-.061L17.6,46.081,5.418,50.14A4.993,4.993,0,0,0,2,54.883V57A5.006,5.006,0,0,0,7,62Zm34-2H7a3.006,3.006,0,0,1-2.829-2H43.829A3.006,3.006,0,0,1,41,60Zm2.985-4H29.156a43.824,43.824,0,0,1,14.607-2.975Q43.94,54.5,43.985,56ZM4,54.883a3,3,0,0,1,2.051-2.846l12.265-4.088a1.033,1.033,0,0,0,.17-.075l8.447-4.693,1.587,1.133a10.976,10.976,0,0,0,11.313.888L41.5,44.37a33.056,33.056,0,0,1,1.959,6.667c-3.7.152-12.125.956-18.722,4.963H4Z"/><path d="M30.447,49.9l-.894-1.79L24.2,50.783l-1.49-1.49a1,1,0,0,0-1.1-.212l-7,3,.788,1.838,6.377-2.733,1.522,1.521a1,1,0,0,0,1.154.188Z"/></g></svg>
