<?xml version="1.0" encoding="iso-8859-1"?>
<!-- Generator: Adobe Illustrator 19.0.0, SVG Export Plug-In . SVG Version: 6.00 Build 0)  -->
<svg version="1.1" id="Capa_1" xmlns="http://www.w3.org/2000/svg" xmlns:xlink="http://www.w3.org/1999/xlink" x="0px" y="0px"
	 viewBox="0 0 432.001 432.001" style="enable-background:new 0 0 432.001 432.001;" xml:space="preserve">
<g>
	<g>
		<g>
			<path d="M222.499,223.593c-13.411,16.443-17.801,38.463-11.72,58.792l15.344-4.568c-4.559-15.249-1.262-31.765,8.8-44.096
				L222.499,223.593z"/>
			<path d="M425.111,383.149c-0.091-0.093-0.183-0.185-0.276-0.276l0-0.024l-39.6-39.6c-7.29-6.924-18.056-8.722-27.2-4.544
				l-18.36-18.4c23.475-28.3,26.907-68.203,8.608-100.096C368.249,125.08,307.317,31.776,212.188,11.81S23.755,52.776,3.789,147.905
				s40.966,188.433,136.095,208.399c11.909,2.5,24.046,3.757,36.215,3.753c22.842-0.001,45.463-4.477,66.584-13.176
				c29.24,10.487,61.847,4.704,85.696-15.2l18.288,18.28c-4.455,9.138-2.595,20.098,4.624,27.256l39.6,39.592
				c9.295,9.45,24.49,9.575,33.94,0.28C434.28,407.794,434.406,392.599,425.111,383.149z M335.699,195.273
				c-0.176,2.4-0.368,4.88-0.648,7.304c-0.272-0.224-0.48-0.496-0.728-0.744c-0.8-0.848-1.752-1.6-2.624-2.4L335.699,195.273z
				 M335.497,172.235l-16.535,17.423c-23.451-14.708-52.446-17.558-78.312-7.696l-0.552-0.712v-45.192
				c0-2.122-0.844-4.156-2.344-5.656l-13.656-13.656V97.921l27.104-55.056C299.61,68.698,331.419,117.518,335.497,172.235z
				 M88.995,49.985l0.032,0.024l41.832,20.392l21.24,28.32v26.024l-21.656,21.656c-3.123,3.124-3.123,8.188,0,11.312l21.656,21.656
				v16.408l-44.44,29.6c-2.232,1.489-3.568,3.997-3.56,6.68v37.6l-12.28,18.4h-5.168l-6.712-33.6
				c-0.418-2.095-1.657-3.936-3.44-5.112l-57.904-38.088C7.248,148.205,35.042,84.532,88.995,49.985z M176.099,344.057
				C107.093,343.95,45.91,299.669,24.243,234.153l40.656,26.752l7.344,36.72c0.748,3.744,4.038,6.437,7.856,6.432h16
				c2.674,0,5.172-1.335,6.656-3.56l16-24c0.874-1.316,1.341-2.86,1.344-4.44v-35.72l44.44-29.6c2.232-1.489,3.568-3.997,3.56-6.68
				v-24c0-2.122-0.844-4.156-2.344-5.656l-18.344-18.344l18.344-18.344c1.5-1.5,2.344-3.534,2.344-5.656v-32
				c0-1.731-0.561-3.415-1.6-4.8l-24-32c-0.761-1.019-1.754-1.842-2.896-2.4l-33.6-16.4c40.906-20.213,88.539-21.816,130.712-4.4
				l-27.816,56.472c-0.535,1.099-0.808,2.306-0.8,3.528v24c0,2.122,0.844,4.156,2.344,5.656l13.656,13.656v44.688
				c-0.002,1.819,0.619,3.584,1.76,5l0.12,0.152c-41.354,25.365-54.315,79.45-28.95,120.804
				c6.604,10.767,15.453,19.983,25.942,27.02C207.784,341.698,191.985,344.065,176.099,344.057z M323.011,314.969
				c-28.136,28.074-73.688,28.074-101.824,0c-28.118-28.118-28.117-73.706,0.001-101.823c28.118-28.118,73.706-28.117,101.823,0.001
				C351.128,241.264,351.128,286.851,323.011,314.969z M413.529,405.475c-0.002,0.002-0.004,0.004-0.006,0.006
				c-3.162,3.029-8.15,3.029-11.312,0l-39.608-39.6c-3.126-3.126-3.126-8.194,0-11.32c3.126-3.126,8.194-3.126,11.32,0l39.6,39.6
				C416.649,397.284,416.651,402.349,413.529,405.475z"/>
		</g>
	</g>
</g>
<g>
</g>
<g>
</g>
<g>
</g>
<g>
</g>
<g>
</g>
<g>
</g>
<g>
</g>
<g>
</g>
<g>
</g>
<g>
</g>
<g>
</g>
<g>
</g>
<g>
</g>
<g>
</g>
<g>
</g>
</svg>
